<svg id="Layer_3" enable-background="new 0 0 64 64" height="512" viewBox="0 0 64 64" width="512" xmlns="http://www.w3.org/2000/svg"><g><path d="m40 39h-16c-7.18 0-13 5.82-13 13v6h8v5h26v-5h8v-6c0-7.18-5.82-13-13-13z" fill="#3279ea"/><g fill="#fddfb1"><path d="m45 58h6v5h-6z"/><path d="m13 58h6v5h-6z"/><path d="m45 16v8c0 7.18-5.82 13-13 13-7.18 0-13-5.82-13-13v-8z"/><path d="m45 16v8c0 7.18-5.82 13-13 13-7.18 0-13-5.82-13-13v-8z"/><path d="m32 37c-2.166 0-4.204-.537-6-1.474v3.474l6 6 6-6v-3.474c-1.796.937-3.834 1.474-6 1.474z"/><path d="m19 24v-5h-.5c-1.933 0-3.5 1.567-3.5 3.5 0 1.933 1.567 3.5 3.5 3.5h.669c-.101-.654-.169-1.318-.169-2z"/><path d="m45.5 19h-.5v5c0 .682-.068 1.346-.169 2h.669c1.933 0 3.5-1.567 3.5-3.5 0-1.933-1.567-3.5-3.5-3.5z"/></g><circle cx="24" cy="52" fill="#e2e7f6" r="2"/><path d="m46 16h-28v-9c0-2.761 2.239-5 5-5h18c2.761 0 5 2.239 5 5z" fill="#3279ea"/><path d="m35 9h-2v-2h-2v2h-2v2h2v2h2v-2h2z" fill="#5b94ee"/><path d="m23 33.367c2.336 2.246 5.504 3.633 9 3.633s6.664-1.387 9-3.633v-9.367h-18z" fill="#7aadf9"/><g><path d="m20 49h-2v8h-6v-5c0-6.28 4.851-11.438 11-11.949v9.134c-1.161.414-2 1.514-2 2.816 0 1.654 1.346 3 3 3s3-1.346 3-3c0-1.302-.839-2.402-2-2.816v-9.185h.586l5.707 5.707c.195.195.451.293.707.293s.512-.098.707-.293l5.293-5.293v8.728c-1.72.447-3 1.999-3 3.858v1c0 .553.448 1 1 1h2v-2h-1c0-1.103.897-2 2-2s2 .897 2 2h-1v2h2c.552 0 1-.447 1-1v-1c0-1.859-1.28-3.411-3-3.858v-9.142c6.617 0 12 5.383 12 12v5h-6v-8h-2v14h2v-4h4v4h2v-4h1c.552 0 1-.447 1-1v-6c0-7.72-6.28-14-14-14h-1v-1.894c3.35-1.945 5.824-5.23 6.673-9.123 2.4-.093 4.327-2.061 4.327-4.483 0-2.31-1.756-4.197-4-4.449v-1.051c.552 0 1-.448 1-1v-9c0-3.309-2.691-6-6-6h-18c-3.309 0-6 2.691-6 6v9c0 .552.448 1 1 1v1.051c-2.244.252-4 2.139-4 4.449 0 2.422 1.927 4.39 4.327 4.483.849 3.893 3.323 7.179 6.673 9.123v1.894h-1c-7.72 0-14 6.28-14 14v6c0 .553.448 1 1 1h1v4h2v-4h4v4h2zm20-16.081c-2.126 1.908-4.925 3.081-8 3.081s-5.874-1.173-8-3.081v-7.919h16zm2-2.3v-6.205l2-2v1.586c0 2.445-.739 4.72-2 6.619zm6-8.119c0 1.224-.885 2.24-2.048 2.454.021-.316.048-.632.048-.954v-3.949c1.14.232 2 1.242 2 2.449zm-29-15.5c0-2.206 1.794-4 4-4h18c2.206 0 4 1.794 4 4v8h-26zm25 10v2.586l-3.414 3.414h-17.172l-3.414-3.414v-2.586zm-28 5.5c0-1.207.86-2.217 2-2.449v3.949c0 .322.027.638.048.954-1.163-.214-2.048-1.23-2.048-2.454zm4-.086 2 2v6.205c-1.261-1.899-2-4.173-2-6.619zm4 30.586c-.551 0-1-.448-1-1s.449-1 1-1 1 .448 1 1-.449 1-1 1zm8-9.414-5-5v-1.525c1.555.598 3.237.939 5 .939s3.445-.341 5-.939v1.525z"/><path d="m33 7h-2v2h-2v2h2v2h2v-2h2v-2h-2z"/></g></g></svg>